<?xml version="1.0" encoding="UTF-8" standalone="no" ?>
<!DOCTYPE svg PUBLIC "-//W3C//DTD SVG 1.1//EN" "http://www.w3.org/Graphics/SVG/1.1/DTD/svg11.dtd">
<svg xmlns="http://www.w3.org/2000/svg" xmlns:xlink="http://www.w3.org/1999/xlink" version="1.1" width="1080" height="1080" viewBox="0 0 1080 1080" xml:space="preserve">
<desc>Created with Fabric.js 5.2.4</desc>
<defs>
</defs>
<rect x="0" y="0" width="100%" height="100%" fill="transparent"></rect>
<g transform="matrix(1 0 0 1 540 540)" id="23bba776-27d8-44bf-872c-6d3db8da4195"  >
</g>
<g transform="matrix(1 0 0 1 540 540)" id="e2260aeb-e5aa-4c61-9c3d-fdd8e52c8e96"  >
<rect style="stroke: none; stroke-width: 1; stroke-dasharray: none; stroke-linecap: butt; stroke-dashoffset: 0; stroke-linejoin: miter; stroke-miterlimit: 4; fill: rgb(255,255,255); fill-rule: nonzero; opacity: 1; visibility: hidden;" vector-effect="non-scaling-stroke"  x="-540" y="-540" rx="0" ry="0" width="1080" height="1080" />
</g>
<g transform="matrix(28.38 0 0 28.38 280.59 789)"  >
<path style="stroke: none; stroke-width: 1; stroke-dasharray: none; stroke-linecap: butt; stroke-dashoffset: 0; stroke-linejoin: miter; stroke-miterlimit: 4; fill: rgb(37,180,189); fill-rule: nonzero; opacity: 1;" vector-effect="non-scaling-stroke"  transform=" translate(-157.76, -26.84)" d="M 150.83 26.88 L 150.83 28.41 C 150.88409945848653 32.58700235709802 154.26286973943195 35.95689282127356 158.44 36 L 162.39 36 C 163.00826342927877 36.02820704251831 163.61023479388228 35.79704175663551 164.05070641577672 35.362265888472486 C 164.49117803767112 34.92749002030947 164.73015818178263 34.32857817043477 164.70999999999998 33.71 L 164.70999999999998 18.82 C 164.69535556108596 18.37279977260504 164.4290366565235 17.972352155879783 164.02228474359694 17.785924195788454 C 163.61553283067042 17.599496235697124 163.13832846451996 17.65916235334561 162.79 17.94 L 151.64 25.12 C 151.0402524768842 25.490057358703222 150.72099394289566 26.183754914036395 150.82999999999998 26.880000000000003" stroke-linecap="round" />
</g>
<g transform="matrix(28.38 0 0 28.38 540.58 404.91)"  >
<path style="stroke: none; stroke-width: 1; stroke-dasharray: none; stroke-linecap: butt; stroke-dashoffset: 0; stroke-linejoin: miter; stroke-miterlimit: 4; fill: rgb(39,157,46); fill-rule: nonzero; opacity: 1;" vector-effect="non-scaling-stroke"  transform=" translate(-166.92, -13.18)" d="M 152.4 21.24 L 163.08 14.349999999999998 C 165.29000000000002 12.939999999999998 167.55 14.289999999999997 167.55 16.529999999999998 L 167.55 24.819999999999997 C 167.53091504107715 25.217465023859575 167.67488917454764 25.605499358349206 167.94861091556035 25.89432298852124 C 168.22233265657306 26.18314661869327 168.60208350248186 26.34773243485901 169 26.35 L 170.91 26.35 C 177.42 26.35 182.99 21.650000000000002 182.99 13.650000000000002 C 183 5.18 176.5 0 168.89 0 L 153 0 C 151.81227559058686 0.026954334562446378 150.86049446195753 0.992016130102904 150.85 2.1800000000000006 L 150.85 20.47 C 150.86843686856034 20.832825143458273 151.0821970515562 21.1571109585071 151.40837340379633 21.31708280005163 C 151.73454975603647 21.477054641596155 152.1218273105506 21.447545296536305 152.42 21.24" stroke-linecap="round" />
</g>
</svg>