<?xml version="1.0" encoding="UTF-8" standalone="no" ?>
<!DOCTYPE svg PUBLIC "-//W3C//DTD SVG 1.1//EN" "http://www.w3.org/Graphics/SVG/1.1/DTD/svg11.dtd">
<svg xmlns="http://www.w3.org/2000/svg" xmlns:xlink="http://www.w3.org/1999/xlink" version="1.1" width="300" height="300" viewBox="0 0 300 300" xml:space="preserve">
<desc>Created with Fabric.js 5.2.4</desc>
<defs>
</defs>
<g transform="matrix(1 0 0 1 150 150)" id="a0596d2a-2383-4bc2-b290-0413655c3b83"  >
<rect style="stroke: none; stroke-width: 1; stroke-dasharray: none; stroke-linecap: butt; stroke-dashoffset: 0; stroke-linejoin: miter; stroke-miterlimit: 4; fill: rgb(255,255,255); fill-rule: nonzero; opacity: 1; visibility: hidden;" vector-effect="non-scaling-stroke"  x="-150" y="-150" rx="0" ry="0" width="300" height="300" />
</g>
<g transform="matrix(0 0 0 0 0 0)" id="1b18d701-8bc2-460f-ba8c-feffa2e7aca5"  >
</g>
<g transform="matrix(1 0 0 1 151.75 143.12)"  >
<path style="stroke: none; stroke-width: 0; stroke-dasharray: none; stroke-linecap: butt; stroke-dashoffset: 0; stroke-linejoin: miter; stroke-miterlimit: 4; fill: rgb(0,188,255); fill-rule: nonzero; opacity: 1;" vector-effect="non-scaling-stroke"  transform=" translate(-274.38, -209.04)" d="M 274.38 116.94 C 196.55 116.94 133.47 157.3 133.47 207.09 C 133.47 256.88 196.56 301.14 274.38 301.14 C 352.2 301.14 415.28999999999996 256.87 415.28999999999996 207.08999999999997 C 415.28999999999996 157.30999999999995 352.19999999999993 116.93999999999997 274.38 116.93999999999997 Z" stroke-linecap="round" />
</g>
<g transform="matrix(1 0 0 1 197.17 116.14)"  >
<path style="stroke: none; stroke-width: 0; stroke-dasharray: none; stroke-linecap: butt; stroke-dashoffset: 0; stroke-linejoin: miter; stroke-miterlimit: 4; fill: rgb(255,255,255); fill-rule: nonzero; opacity: 1;" vector-effect="non-scaling-stroke"  transform=" translate(-320.54, -182.31)" d="M 228.53 179.22 C 228.46 179.35999999999999 227.08 180.78 227.98 181.93 C 230.16 184.71 236.89 186.31 243.7 184.78 C 247.75 183.87 252.95 179.74 257.97999999999996 175.75 C 263.42999999999995 171.42 268.84 167.08 274.28 165.36 C 280.03999999999996 163.53 283.72999999999996 164.31 286.16999999999996 165.05 C 288.84 165.85000000000002 291.98999999999995 167.61 297.00999999999993 171.37 C 306.4599999999999 178.47 344.43999999999994 211.63 351.00999999999993 217.36 C 356.2899999999999 214.97000000000003 381.4799999999999 204.8 413.3999999999999 197.76000000000002 C 410.61999999999995 180.74 400.38999999999993 164.51000000000002 384.67999999999995 151.77 C 362.78999999999996 160.96 334.25999999999993 166.47 308.09999999999997 153.70000000000002 C 307.96999999999997 153.65 293.80999999999995 146.95000000000002 279.84999999999997 147.28000000000003 C 259.09999999999997 147.76000000000002 250.10999999999996 156.74000000000004 240.59999999999997 166.25000000000003 L 228.54999999999995 179.24000000000004 Z" stroke-linecap="round" />
</g>
<g transform="matrix(1 0 0 1 120.96 141.94)"  >
<path style="stroke: none; stroke-width: 0; stroke-dasharray: none; stroke-linecap: butt; stroke-dashoffset: 0; stroke-linejoin: miter; stroke-miterlimit: 4; fill: rgb(255,255,255); fill-rule: nonzero; opacity: 1;" vector-effect="non-scaling-stroke"  transform=" translate(-243.6, -208.12)" d="M 349.44 220.97 C 348.99 220.57 304.77 181.88 294.75 174.35 C 288.95 170 285.73 168.89 282.34 168.46 C 280.58 168.23000000000002 278.14 168.56 276.44 169.03 C 271.78 170.3 265.69 174.37 260.28 178.66 C 254.67999999999998 183.12 249.39999999999998 187.32 244.48999999999998 188.42 C 238.23 189.82 230.57999999999998 188.17 227.08999999999997 185.80999999999997 C 225.67999999999998 184.85999999999999 224.67999999999998 183.75999999999996 224.2 182.64999999999998 C 222.91 179.65999999999997 225.29 177.26999999999998 225.67999999999998 176.86999999999998 L 237.87999999999997 163.67 C 239.29999999999995 162.26 240.72999999999996 160.83999999999997 242.18999999999997 159.44 C 238.24999999999997 159.95 234.60999999999996 160.96 231.06999999999996 161.94 C 226.64999999999998 163.18 222.38999999999996 164.35999999999999 218.08999999999997 164.35999999999999 C 216.28999999999996 164.35999999999999 206.67 162.77999999999997 204.83999999999997 162.29 C 193.78999999999996 159.26999999999998 181.27999999999997 156.32 166.79999999999998 149.56 C 149.45 162.47 138.14999999999998 178.33 134.79999999999998 196.12 C 137.29 196.78 143.82 198.27 145.51 198.64000000000001 C 184.76999999999998 207.37 197 216.36 199.22 218.24 C 201.62 215.57000000000002 205.09 213.88 208.95 213.88 C 213.29999999999998 213.88 217.20999999999998 216.07 219.58999999999997 219.44 C 221.83999999999997 217.66 224.93999999999997 216.14 228.95 216.15 C 230.76999999999998 216.15 232.66 216.49 234.57 217.13 C 239 218.65 241.29 221.6 242.47 224.26999999999998 C 243.95 223.6 245.78 223.1 247.93 223.10999999999999 C 250.05 223.10999999999999 252.25 223.58999999999997 254.46 224.54999999999998 C 261.7 227.66 262.82 234.76999999999998 262.17 240.13 C 262.69 240.07 263.21000000000004 240.04999999999998 263.73 240.04999999999998 C 272.31 240.04999999999998 279.29 247.02999999999997 279.29 255.61999999999998 C 279.29 258.28 278.61 260.78 277.43 262.96999999999997 C 279.77 264.28 285.72 267.24999999999994 290.95 266.59 C 295.12 266.06 296.71 264.64 297.27 263.83 C 297.65999999999997 263.28 298.07 262.63 297.69 262.16999999999996 L 286.61 249.86999999999995 C 286.61 249.86999999999995 284.79 248.13999999999996 285.39 247.47999999999996 C 286.01 246.79999999999995 287.14 247.77999999999997 287.94 248.43999999999997 C 293.58 253.14999999999998 300.46 260.24999999999994 300.46 260.24999999999994 C 300.58 260.3299999999999 301.03 261.22999999999996 303.58 261.67999999999995 C 305.77 262.06999999999994 309.65 261.84999999999997 312.34 259.63999999999993 C 313.01 259.0799999999999 313.69 258.38999999999993 314.27 257.6699999999999 C 314.21999999999997 257.7099999999999 314.18 257.7499999999999 314.14 257.7699999999999 C 316.97999999999996 254.13999999999993 313.82 250.47999999999993 313.82 250.47999999999993 L 300.89 235.95999999999992 C 300.89 235.95999999999992 299.03999999999996 234.24999999999991 299.66999999999996 233.55999999999992 C 300.22999999999996 232.95999999999992 301.41999999999996 233.85999999999993 302.22999999999996 234.5399999999999 C 306.31999999999994 237.9599999999999 312.10999999999996 243.7699999999999 317.65 249.1999999999999 C 318.73999999999995 249.9899999999999 323.60999999999996 252.99999999999991 330.06 248.7699999999999 C 333.98 246.1999999999999 334.76 243.0399999999999 334.65 240.6699999999999 C 334.38 237.5199999999999 331.91999999999996 235.2699999999999 331.91999999999996 235.2699999999999 L 314.25999999999993 217.5099999999999 C 314.25999999999993 217.5099999999999 312.38999999999993 215.9199999999999 313.04999999999995 215.1099999999999 C 313.59 214.4299999999999 314.79999999999995 215.4099999999999 315.59999999999997 216.0699999999999 C 321.21999999999997 220.77999999999992 336.46 234.74999999999991 336.46 234.74999999999991 C 336.68 234.89999999999992 341.94 238.64999999999992 348.45 234.5099999999999 C 350.78 233.0199999999999 352.26 230.77999999999992 352.39 228.1699999999999 C 352.61 223.6499999999999 349.43 220.9699999999999 349.43 220.9699999999999 Z" stroke-linecap="round" />
</g>
<g transform="matrix(1 0 0 1 114.47 175.83)"  >
<path style="stroke: none; stroke-width: 0; stroke-dasharray: none; stroke-linecap: butt; stroke-dashoffset: 0; stroke-linejoin: miter; stroke-miterlimit: 4; fill: rgb(255,255,255); fill-rule: nonzero; opacity: 1;" vector-effect="non-scaling-stroke"  transform=" translate(-237.6, -242.54)" d="M 263.76 243.48 C 261.02 243.45 258.02 245.07999999999998 257.63 244.84 C 257.40999999999997 244.70000000000002 257.8 243.6 258.05 242.96 C 258.32 242.33 261.92 231.48000000000002 253.13000000000002 227.71 C 246.40000000000003 224.82000000000002 242.28000000000003 228.07000000000002 240.87000000000003 229.54000000000002 C 240.50000000000003 229.92000000000002 240.33000000000004 229.89000000000001 240.29000000000002 229.41000000000003 C 240.15000000000003 227.45000000000002 239.28000000000003 222.17000000000002 233.47000000000003 220.39000000000001 C 225.17000000000002 217.85000000000002 219.83000000000004 223.64000000000001 218.48000000000002 225.74 C 217.87 221.01000000000002 213.87 217.34 208.98000000000002 217.33 C 203.66000000000003 217.33 199.34000000000003 221.63000000000002 199.33 226.96 C 199.33 232.28 203.64000000000001 236.60000000000002 208.97000000000003 236.60000000000002 C 211.56000000000003 236.60000000000002 213.90000000000003 235.57000000000002 215.63000000000002 233.91000000000003 C 215.69000000000003 233.96000000000004 215.71000000000004 234.05 215.68000000000004 234.23000000000002 C 215.27000000000004 236.62 214.53000000000003 245.27 223.60000000000002 248.8 C 227.24 250.21 230.33 249.16000000000003 232.89000000000001 247.37 C 233.65 246.83 233.78 247.06 233.67000000000002 247.78 C 233.34 250.01 233.76000000000002 254.77 240.44000000000003 257.48 C 245.52000000000004 259.55 248.53000000000003 257.44 250.51000000000002 255.61 C 251.37000000000003 254.83 251.60000000000002 254.96 251.65 256.17 C 251.89000000000001 262.61 257.24 267.73 263.74 267.74 C 270.44 267.74 275.87 262.33 275.87 255.64000000000001 C 275.87 248.94000000000003 270.45 243.58 263.75 243.51000000000002 Z" stroke-linecap="round" />
</g>
<g transform="matrix(1 0 0 1 151.74 146.69)"  >
<path style="stroke: none; stroke-width: 0; stroke-dasharray: none; stroke-linecap: butt; stroke-dashoffset: 0; stroke-linejoin: miter; stroke-miterlimit: 4; fill: rgb(10,0,128); fill-rule: nonzero; opacity: 1;" vector-effect="non-scaling-stroke"  transform=" translate(-274.34, -212.6)" d="M 274.35 113.21 C 195.04000000000002 113.21 130.75000000000003 155.39 130.75000000000003 207.13 C 130.75000000000003 208.47 130.73000000000002 212.16 130.73000000000002 212.63 C 130.73000000000002 267.53 186.92000000000002 311.98 274.33000000000004 311.98 C 361.74000000000007 311.98 417.94000000000005 267.53000000000003 417.94000000000005 212.64000000000001 L 417.94000000000005 207.13000000000002 C 417.94000000000005 155.39000000000001 353.65000000000003 113.21000000000002 274.35 113.21000000000002 Z M 411.47 196.72 C 380.26000000000005 203.66 356.98 213.73 351.15000000000003 216.32999999999998 C 337.53000000000003 204.44 306.05 177.07 297.52000000000004 170.67 C 292.65000000000003 167 289.32000000000005 165.07 286.40000000000003 164.2 C 285.09000000000003 163.79999999999998 283.28000000000003 163.35 280.95000000000005 163.35 C 278.78000000000003 163.35 276.45000000000005 163.73999999999998 274.02000000000004 164.51999999999998 C 268.51000000000005 166.26999999999998 263.02000000000004 170.63 257.71000000000004 174.85 L 257.44000000000005 175.07 C 252.49000000000007 179 247.38000000000005 183.07 243.51000000000005 183.93 C 241.82000000000005 184.31 240.08000000000004 184.51000000000002 238.35000000000005 184.51000000000002 C 234.01000000000005 184.51000000000002 230.12000000000006 183.25000000000003 228.66000000000005 181.39000000000001 C 228.42000000000004 181.08 228.58000000000004 180.58 229.14000000000004 179.87 L 229.21000000000004 179.77 L 241.20000000000005 166.86 C 250.59000000000003 157.47000000000003 259.45000000000005 148.61 279.86 148.14000000000001 C 280.2 148.13000000000002 280.54 148.12 280.88 148.12 C 293.58 148.13 306.28 153.81 307.71 154.48000000000002 C 319.62 160.29000000000002 331.91999999999996 163.24 344.27 163.25000000000003 C 357.12 163.25000000000003 370.38 160.08000000000004 384.32 153.67000000000002 C 398.88 165.91000000000003 408.53 180.66000000000003 411.46999999999997 196.73000000000002 Z M 274.37 118.75 C 316.47 118.75 354.13 130.82 379.46000000000004 149.82 C 367.22 155.12 355.55 157.79 344.29 157.79 C 332.77000000000004 157.78 321.26 155.01 310.08000000000004 149.56 C 309.49000000000007 149.28 295.47 142.67000000000002 280.88000000000005 142.66 C 280.50000000000006 142.66 280.11000000000007 142.66 279.7300000000001 142.67 C 262.5900000000001 143.07 252.93000000000006 149.16 246.44000000000008 154.48999999999998 C 240.13000000000008 154.64999999999998 234.6800000000001 156.17 229.8300000000001 157.51999999999998 C 225.50000000000009 158.71999999999997 221.7700000000001 159.76 218.1300000000001 159.76 C 216.6300000000001 159.76 213.93000000000012 159.62 213.6900000000001 159.60999999999999 C 209.5100000000001 159.48 188.5100000000001 154.32999999999998 171.74000000000012 148 C 197.01000000000013 130.04 233.6300000000001 118.74 274.3800000000001 118.74 Z M 166.76 151.76 C 184.26999999999998 158.92 205.51999999999998 164.45999999999998 212.23999999999998 164.89 C 214.10999999999999 165.01 216.10999999999999 165.23 218.10999999999999 165.23 C 222.57 165.23 227.01999999999998 163.98 231.32 162.78 C 233.85999999999999 162.07 236.67 161.29 239.62 160.73 C 238.83 161.5 238.04 162.29 237.25 163.07999999999998 L 225.08 176.24999999999997 C 224.12 177.21999999999997 222.04000000000002 179.79999999999998 223.41000000000003 182.97999999999996 C 223.95000000000002 184.25999999999996 225.06000000000003 185.48999999999995 226.61 186.52999999999997 C 229.51000000000002 188.47999999999996 234.71 189.80999999999997 239.53 189.80999999999997 C 241.36 189.80999999999997 243.1 189.62999999999997 244.68 189.26999999999998 C 249.79000000000002 188.13 255.14000000000001 183.85999999999999 260.81 179.35 C 265.33 175.76 271.75 171.2 276.67 169.85999999999999 C 278.05 169.48999999999998 279.73 169.24999999999997 281.09000000000003 169.24999999999997 C 281.50000000000006 169.24999999999997 281.88000000000005 169.26999999999998 282.23 169.31999999999996 C 285.47 169.72999999999996 288.61 170.82999999999996 294.22 175.03999999999996 C 304.22 182.54999999999995 348.44000000000005 221.23999999999995 348.87 221.61999999999995 C 348.9 221.63999999999996 351.72 224.07999999999996 351.52 228.11999999999995 C 351.40999999999997 230.37999999999994 350.15999999999997 232.37999999999994 347.97999999999996 233.76999999999995 C 346.09 234.96999999999994 344.15 235.57999999999996 342.17999999999995 235.57999999999996 C 339.21999999999997 235.57999999999996 337.18999999999994 234.18999999999997 337.04999999999995 234.09999999999997 C 336.88999999999993 233.96999999999997 321.73999999999995 220.06999999999996 316.15999999999997 215.39999999999998 C 315.27 214.65999999999997 314.40999999999997 213.99999999999997 313.53999999999996 213.99999999999997 C 313.06999999999994 213.99999999999997 312.65999999999997 214.19999999999996 312.37999999999994 214.54999999999998 C 311.49999999999994 215.63 312.47999999999996 217.13 313.63999999999993 218.10999999999999 L 331.3399999999999 235.91 C 331.3399999999999 235.91 333.5499999999999 237.97 333.7899999999999 240.7 C 333.9299999999999 243.64999999999998 332.5199999999999 246.11999999999998 329.5899999999999 248.04 C 327.49999999999994 249.42 325.38999999999993 250.10999999999999 323.31999999999994 250.10999999999999 C 320.5999999999999 250.10999999999999 318.68999999999994 248.86999999999998 318.2699999999999 248.57999999999998 L 315.7299999999999 246.07999999999998 C 311.0899999999999 241.51 306.2999999999999 236.79 302.7899999999999 233.86999999999998 C 301.9299999999999 233.15999999999997 301.0199999999999 232.49999999999997 300.1499999999999 232.49999999999997 C 299.7199999999999 232.49999999999997 299.3299999999999 232.65999999999997 299.0299999999999 232.97999999999996 C 298.62999999999994 233.41999999999996 298.3499999999999 234.21999999999997 299.3499999999999 235.54999999999995 C 299.7499999999999 236.09999999999997 300.2399999999999 236.54999999999995 300.2399999999999 236.54999999999995 L 313.1499999999999 251.05999999999995 C 313.24999999999994 251.18999999999994 315.80999999999995 254.22999999999993 313.43999999999994 257.24999999999994 L 312.97999999999996 257.8299999999999 C 312.59 258.24999999999994 312.17999999999995 258.6499999999999 311.78 258.98999999999995 C 309.58 260.79999999999995 306.64 260.98999999999995 305.46999999999997 260.98999999999995 C 304.84 260.98999999999995 304.24999999999994 260.93999999999994 303.71999999999997 260.84 C 302.45 260.60999999999996 301.59 260.26 301.16999999999996 259.77 L 301.00999999999993 259.60999999999996 C 300.30999999999995 258.87999999999994 293.79999999999995 252.22999999999996 288.4099999999999 247.73999999999995 C 287.69999999999993 247.13999999999996 286.8099999999999 246.39999999999995 285.8999999999999 246.39999999999995 C 285.44999999999993 246.39999999999995 285.0499999999999 246.57999999999996 284.7299999999999 246.91999999999996 C 283.6699999999999 248.08999999999995 285.2699999999999 249.82999999999996 285.94999999999993 250.46999999999997 L 296.9599999999999 262.61999999999995 C 296.94999999999993 262.72999999999996 296.80999999999995 262.97999999999996 296.5499999999999 263.35999999999996 C 296.1499999999999 263.90999999999997 294.8199999999999 265.23999999999995 290.8199999999999 265.73999999999995 C 290.33999999999986 265.79999999999995 289.83999999999986 265.8299999999999 289.3599999999999 265.8299999999999 C 285.2399999999999 265.8299999999999 280.8399999999999 263.8299999999999 278.5699999999999 262.62999999999994 C 279.59999999999985 260.44999999999993 280.1399999999999 258.04999999999995 280.1399999999999 255.64999999999995 C 280.1399999999999 246.57999999999996 272.77999999999986 239.20999999999995 263.70999999999987 239.19999999999996 C 263.51999999999987 239.19999999999996 263.3099999999999 239.19999999999996 263.1199999999999 239.20999999999995 C 263.4099999999999 235.06999999999996 262.82999999999987 227.22999999999996 254.7799999999999 223.77999999999994 C 252.4599999999999 222.77999999999994 250.1499999999999 222.25999999999993 247.90999999999988 222.25999999999993 C 246.1499999999999 222.25999999999993 244.4599999999999 222.55999999999995 242.8699999999999 223.16999999999993 C 241.1999999999999 219.92999999999992 238.4299999999999 217.56999999999994 234.8299999999999 216.33999999999992 C 232.8299999999999 215.64999999999992 230.8499999999999 215.29999999999993 228.9299999999999 215.29999999999993 C 225.5799999999999 215.29999999999993 222.4899999999999 216.28999999999994 219.7399999999999 218.23999999999992 C 217.0999999999999 214.95999999999992 213.1199999999999 213.01999999999992 208.9299999999999 213.01999999999992 C 205.2599999999999 213.01999999999992 201.7299999999999 214.48999999999992 199.1199999999999 217.07999999999993 C 195.68999999999988 214.45999999999992 182.0899999999999 205.81999999999994 145.6799999999999 197.54999999999993 C 143.93999999999988 197.15999999999994 139.9899999999999 196.02999999999992 137.5099999999999 195.29999999999993 C 140.9199999999999 178.95999999999992 151.30999999999992 164.02999999999992 166.7099999999999 151.77999999999992 Z M 234.3 246.54 L 233.91000000000003 246.19 L 233.51000000000002 246.19 C 233.19000000000003 246.19 232.85000000000002 246.32 232.4 246.64 C 230.54 247.95 228.77 248.57999999999998 226.96 248.57999999999998 C 225.96 248.57999999999998 224.94 248.38 223.92000000000002 247.98999999999998 C 215.48000000000002 244.7 216.14000000000001 236.73999999999998 216.56 234.33999999999997 C 216.62 233.84999999999997 216.5 233.47999999999996 216.19 233.21999999999997 L 215.59 232.72999999999996 L 215.03 233.25999999999996 C 213.38 234.84999999999997 211.23 235.70999999999995 208.97 235.70999999999995 C 204.14 235.70999999999995 200.2 231.77999999999994 200.21 226.93999999999994 C 200.21 222.10999999999993 204.15 218.17999999999995 208.99 218.18999999999994 C 213.36 218.18999999999994 217.08 221.46999999999994 217.63 225.83999999999995 L 217.93 228.18999999999994 L 219.22 226.19999999999993 C 219.35999999999999 225.96999999999994 222.91 220.60999999999993 229.42 220.61999999999992 C 230.66 220.61999999999992 231.94 220.8199999999999 233.23 221.2199999999999 C 238.42 222.79999999999993 239.29999999999998 227.5099999999999 239.42999999999998 229.4699999999999 C 239.51999999999998 230.6099999999999 240.33999999999997 230.6699999999999 240.48999999999998 230.6699999999999 C 240.93999999999997 230.6699999999999 241.26999999999998 230.3899999999999 241.49999999999997 230.1399999999999 C 242.47999999999996 229.1199999999999 244.60999999999999 227.4199999999999 247.94999999999996 227.4199999999999 C 249.47999999999996 227.4199999999999 251.09999999999997 227.7899999999999 252.77999999999997 228.5099999999999 C 261.03 232.0499999999999 257.28999999999996 242.52999999999992 257.25 242.6399999999999 C 256.54 244.3799999999999 256.51 245.1399999999999 257.18 245.5899999999999 L 257.5 245.7399999999999 L 257.74 245.7399999999999 C 258.11 245.7399999999999 258.57 245.5799999999999 259.34000000000003 245.3199999999999 C 260.46000000000004 244.92999999999992 262.15000000000003 244.3499999999999 263.74 244.3499999999999 L 263.74 244.3499999999999 C 269.95 244.4199999999999 275 249.4799999999999 275 255.6099999999999 C 275 261.8099999999999 269.94 266.8499999999999 263.73 266.8499999999999 C 257.66 266.8499999999999 252.72000000000003 262.1199999999999 252.50000000000003 256.1099999999999 C 252.48000000000002 255.5899999999999 252.43000000000004 254.2299999999999 251.27000000000004 254.2299999999999 C 250.80000000000004 254.2299999999999 250.38000000000005 254.5199999999999 249.91000000000003 254.9499999999999 C 248.57000000000002 256.1899999999999 246.87000000000003 257.4399999999999 244.39000000000001 257.4399999999999 C 243.26000000000002 257.4399999999999 242.04000000000002 257.1799999999999 240.75000000000003 256.64999999999986 C 234.34000000000003 254.04999999999987 234.25000000000003 249.64999999999986 234.51000000000002 247.87999999999985 C 234.58 247.40999999999985 234.60000000000002 246.91999999999985 234.28000000000003 246.52999999999986 Z M 274.37 295.42 C 198.11 295.42 136.29 255.87 136.29 207.09000000000003 C 136.29 205.13000000000002 136.42999999999998 203.18000000000004 136.62 201.25000000000003 C 137.23000000000002 201.40000000000003 143.29 202.84000000000003 144.54 203.13000000000002 C 181.73 211.39000000000001 194.01999999999998 219.98000000000002 196.1 221.61 C 195.4 223.3 195.03 225.12 195.03 226.96 C 195.03 234.65 201.28 240.91 208.96 240.91 C 209.82000000000002 240.91 210.68 240.82999999999998 211.52 240.67 C 212.68 246.32999999999998 216.38000000000002 250.61999999999998 222.03 252.82 C 223.68 253.45 225.35 253.78 227 253.78 C 228.06 253.78 229.13 253.65 230.17 253.39000000000001 C 231.22 256.04 233.55999999999997 259.35 238.82 261.48 C 240.66 262.22 242.5 262.61 244.29 262.61 C 245.75 262.61 247.17999999999998 262.35 248.54 261.85 C 251.06 267.98 257.05 272.05 263.73 272.05 C 268.16 272.05 272.41 270.25 275.51 267.06 C 278.15999999999997 268.54 283.76 271.21 289.42 271.22 C 290.15000000000003 271.22 290.83000000000004 271.17 291.53000000000003 271.09000000000003 C 297.15000000000003 270.38000000000005 299.76000000000005 268.18 300.96000000000004 266.47 C 301.18000000000006 266.17 301.37000000000006 265.85 301.54 265.52000000000004 C 302.86 265.90000000000003 304.32 266.21000000000004 306 266.22 C 309.07 266.22 312.01 265.17 314.99 263.01000000000005 C 317.92 260.90000000000003 320 257.87000000000006 320.3 255.29000000000005 C 320.3 255.26000000000005 320.3 255.22000000000006 320.31 255.18000000000004 C 321.3 255.38000000000002 322.31 255.48000000000005 323.32 255.48000000000005 C 326.48 255.48000000000005 329.59 254.50000000000006 332.56 252.55000000000004 C 338.29 248.80000000000004 339.28000000000003 243.89000000000004 339.19 240.68000000000004 C 340.2 240.89000000000004 341.21999999999997 241.00000000000003 342.24 241.00000000000003 C 345.2 241.00000000000003 348.12 240.11000000000004 350.89 238.34000000000003 C 354.44 236.07000000000002 356.58 232.59000000000003 356.90999999999997 228.55000000000004 C 357.11999999999995 225.80000000000004 356.43999999999994 223.02000000000004 354.99999999999994 220.64000000000004 C 364.5799999999999 216.51000000000005 386.47999999999996 208.52000000000004 412.2699999999999 202.71000000000004 C 412.37999999999994 204.17000000000004 412.43999999999994 205.64000000000004 412.43999999999994 207.12000000000003 C 412.43999999999994 255.90000000000003 350.61999999999995 295.45000000000005 274.36999999999995 295.45000000000005 Z" stroke-linecap="round" />
</g>
</svg>