<?xml version="1.0" encoding="UTF-8" standalone="no" ?>
<!DOCTYPE svg PUBLIC "-//W3C//DTD SVG 1.1//EN" "http://www.w3.org/Graphics/SVG/1.1/DTD/svg11.dtd">
<svg xmlns="http://www.w3.org/2000/svg" xmlns:xlink="http://www.w3.org/1999/xlink" version="1.1" width="1080" height="1080" viewBox="0 0 1080 1080" xml:space="preserve">
<desc>Created with Fabric.js 5.2.4</desc>
<defs>
</defs>
<g transform="matrix(1 0 0 1 540 540)" id="e2260aeb-e5aa-4c61-9c3d-fdd8e52c8e96"  >
<rect style="stroke: none; stroke-width: 1; stroke-dasharray: none; stroke-linecap: butt; stroke-dashoffset: 0; stroke-linejoin: miter; stroke-miterlimit: 4; fill: rgb(255,255,255); fill-rule: nonzero; opacity: 1; visibility: hidden;" vector-effect="non-scaling-stroke"  x="-540" y="-540" rx="0" ry="0" width="1080" height="1080" />
</g>
<g transform="matrix(1 0 0 1 540 540)" id="23bba776-27d8-44bf-872c-6d3db8da4195"  >
</g>
<g transform="matrix(1.97 0 0 8.98 540 540)" id="_164475816"  >
<path style="stroke: none; stroke-width: 1; stroke-dasharray: none; stroke-linecap: butt; stroke-dashoffset: 0; stroke-linejoin: miter; stroke-miterlimit: 4; fill: rgb(238,51,42); fill-rule: evenodd; opacity: 1;" vector-effect="non-scaling-stroke"  transform=" translate(-275, -57.22)" d="M 5.7378 109.694 C 5.7378 74.7073 5.7378 39.721900000000005 5.7378 4.746000000000009 C 185.2368 4.746000000000009 364.7498 4.746000000000009 544.2608 4.746000000000009 C 544.2608 39.72200000000001 544.2608 74.70750000000001 544.2608 109.694 C 364.74980000000005 109.694 185.23680000000002 109.694 5.737799999999993 109.694 z" stroke-linecap="round" />
</g>
<g transform="matrix(8.98 0 0 8.98 530.64 487.77)" id="path2996"  >
<path style="stroke: none; stroke-width: 1; stroke-dasharray: none; stroke-linecap: butt; stroke-dashoffset: 0; stroke-linejoin: miter; stroke-miterlimit: 4; fill: rgb(255,255,255); fill-rule: evenodd; opacity: 1;" vector-effect="non-scaling-stroke"  transform=" translate(-63.78, -51.4)" d="M 65.170244 15.541752 C 64.920017 17.752035 65.024717 20.122109000000002 65.660445 22.035890000000002 C 66.51659 24.613118 67.70076 26.471127000000003 72.061285 32.144048 C 76.662447 38.130084 78.134962 40.299799 79.229985 43.404009 C 80.125101 45.941648 80.143531 47.407969 79.759599 49.711554 C 83.79087 50.479415 90.39828899999999 52.620070999999996 94.82714999999999 55.27586 C 98.93515 57.802273 101.92177999999998 61.078083 103.01566999999999 64.256231 C 103.66273999999999 66.136316 103.63631999999998 69.050419 102.94966999999998 70.873028 C 102.29023999999998 72.62340300000001 101.38623999999999 74.084835 100.05220999999999 75.54618 C 94.75017599999998 81.35413100000001 84.251663 85.526076 71.60533399999998 86.85412500000001 C 68.80795499999998 87.14789200000001 61.952533999999986 87.35689200000002 59.601505999999986 87.22005800000001 C 42.70823499999999 86.23689200000001 29.123684999999988 80.40023400000001 25.257708999999984 72.46873900000001 C 23.649974999999984 69.17022900000002 23.689198999999984 66.33052700000002 25.383701999999985 63.068443000000016 C 26.780886999999986 60.37872700000002 30.610503999999985 57.054620000000014 35.113956999999985 54.61597200000001 C 39.44630799999999 52.530217000000015 43.51371799999998 50.97167300000001 47.87362299999998 49.74486000000002 C 48.08528999999998 52.591023000000014 53.63215299999998 59.394033000000015 55.46823399999998 61.80267100000002 C 59.47181899999998 67.04334500000002 61.05554999999998 69.54289800000002 62.187010999999984 71.54490700000002 C 62.86662099999998 72.74737200000003 63.250551999999985 73.51523400000002 63.05857499999998 75.80412700000002 C 63.05857499999998 75.80412700000002 64.59919799999999 74.40929800000002 65.18046999999999 73.22459800000003 C 65.93259199999999 71.69173900000003 66.20090399999998 70.13612700000003 66.05634999999998 68.13752800000003 C 65.88219399999998 65.73014000000003 65.47325299999999 64.25503400000004 64.32261099999998 61.89865400000003 C 63.20394899999998 59.60764700000003 61.60057099999998 57.29010400000003 58.55169299999998 53.54817200000003 C 54.24669899999998 48.26458000000003 52.65258099999998 45.36199100000003 51.99489499999998 41.59234100000003 C 51.26485299999998 37.40800700000003 52.440869999999975 32.960637000000034 54.85036999999998 30.794307000000032 C 55.374629999999975 30.32292200000003 56.21811999999998 29.86446800000003 56.21811999999998 29.86446800000003 C 56.21811999999998 29.86446800000003 56.14610999999998 30.94271100000003 56.14610999999998 32.16805300000003 C 56.14610999999998 34.75959600000003 56.44171299999998 36.10882900000003 57.43587499999998 38.08297300000003 C 58.67040999999998 40.53448500000003 60.379125999999985 42.82620000000003 65.61838499999999 49.06097900000003 C 70.255242 54.57890400000003 71.695303 57.38220300000003 71.695303 60.88483400000003 C 71.695303 61.707307000000036 71.698703 62.57321000000003 71.698703 62.57321000000003 C 71.698703 62.57321000000003 72.92355699999999 61.63892400000003 73.49064899999999 60.78285700000003 C 75.28824599999999 58.06928000000003 75.57295299999998 53.83635300000003 74.204539 50.08680100000003 C 73.266432 47.51646300000003 71.746306 45.17730500000003 67.251746 39.52871900000003 C 62.676271 33.778442000000034 60.756628 29.17128400000003 60.756628 25.33197500000003 C 60.756628 21.492672000000027 61.590108 17.82993100000003 65.171831 15.541752000000029 z" stroke-linecap="round" />
</g>
</svg>